<svg id="Layer_1" data-name="Layer 1" xmlns="http://www.w3.org/2000/svg" viewBox="0 0 1295.77 203.37"><defs><style>.cls-1{fill:#1f427b;}.cls-2{fill:#6e7071;}.cls-3{fill:#ea6225;}</style></defs><title>bodi electronics svg</title><path class="cls-1" d="M298.72,739.54c-.06-.62-.12-1.23-.19-1.85A101.72,101.72,0,0,0,208.92,649l-.15,0a102.66,102.66,0,0,0-22.62,0H186a101.72,101.72,0,0,0-89.36,88.76l-.21,1.78a102.16,102.16,0,0,0,0,21c.06.6.12,1.19.19,1.78A101.71,101.71,0,0,0,186,851l.15,0a102.66,102.66,0,0,0,22.62,0l.15,0a101.71,101.71,0,0,0,89.6-88.75c.08-.61.15-1.22.21-1.84a103.31,103.31,0,0,0,.54-10.46A100.47,100.47,0,0,0,298.72,739.54Zm-23-1.9a79.14,79.14,0,0,1-66.5-65.85A79.11,79.11,0,0,1,275.69,737.64ZM241.06,750a102.11,102.11,0,0,0-43.6,42.93A102.11,102.11,0,0,0,153.86,750a102.11,102.11,0,0,0,43.6-42.93A102.11,102.11,0,0,0,241.06,750Zm-55.34-78.18a79.13,79.13,0,0,1-66.24,65.79A79.14,79.14,0,0,1,185.72,671.82Zm.64,156.45c-.22,0-.43,0-.64-.09a79.12,79.12,0,0,1-66.24-65.79,79.13,79.13,0,0,1,66.24,65.79c.21,0,.42.06.64.09Zm22.83-.06a79.12,79.12,0,0,1,66.5-65.85A79.12,79.12,0,0,1,209.19,828.21Z" transform="translate(-95.9 -648.32)"/><path class="cls-2" d="M1391.67,758a19.71,19.71,0,1,1,0-24.32V716.05a35.54,35.54,0,1,0,0,59.64Z" transform="translate(-95.9 -648.32)"/><polygon class="cls-2" points="722.28 80.26 722.28 88.86 742.38 88.86 742.38 103.98 722.28 103.98 722.28 113.51 744.96 113.51 744.96 133.09 722.28 133.09 702.69 133.09 702.69 113.51 702.69 103.98 702.69 88.86 702.69 80.26 722.28 80.26"/><polygon class="cls-2" points="871.19 62.01 855.91 62.01 836.33 62.01 821.04 62.01 821.04 79.19 836.33 79.19 836.33 133.1 855.91 133.1 855.91 79.19 871.19 79.19 871.19 62.01"/><polygon class="cls-2" points="1063.54 62.01 1063.54 87.82 1041.89 87.82 1041.89 62.01 1022.3 62.01 1022.3 133.09 1041.89 133.09 1041.89 103.46 1063.54 103.46 1063.54 133.09 1083.13 133.09 1083.13 62.01 1063.54 62.01"/><polygon class="cls-2" points="792.11 97.55 819.08 133.1 795.36 133.1 774.06 104.88 774.06 133.1 754.47 133.1 754.47 62.01 774.06 62.01 774.06 90.23 795.36 62.01 819.08 62.01 792.11 97.55"/><polygon class="cls-2" points="1212.56 97.48 1239.53 133.02 1215.81 133.02 1194.51 104.8 1194.51 133.02 1174.92 133.02 1174.92 61.93 1194.51 61.93 1194.51 90.15 1215.81 61.93 1239.53 61.93 1212.56 97.48"/><path class="cls-2" d="M1070.73,710.25c-20.25,0-36.66,15.91-36.66,35.54s16.41,35.54,36.66,35.54,36.65-15.91,36.65-35.54S1091,710.25,1070.73,710.25Zm0,55.48c-8.93,0-16.17-8.93-16.17-19.94s7.24-19.94,16.17-19.94,16.17,8.93,16.17,19.94S1079.66,765.73,1070.73,765.73Z" transform="translate(-95.9 -648.32)"/><path class="cls-2" d="M439.93,709c-20.24,0-36.65,15.91-36.65,35.54s16.41,35.54,36.65,35.54,36.66-15.91,36.66-35.54S460.18,709,439.93,709Zm0,55.48c-8.93,0-16.17-8.92-16.17-19.94s7.24-19.94,16.17-19.94,16.18,8.93,16.18,19.94S448.86,764.47,439.93,764.47Z" transform="translate(-95.9 -648.32)"/><path class="cls-2" d="M681.79,710.25A35.39,35.39,0,0,0,662.46,716v17.66a19.68,19.68,0,0,1,33.73,4.74H674.35v14.09h22.11a19.66,19.66,0,0,1-34,5.49v17.66a35.54,35.54,0,1,0,19.33-65.36Z" transform="translate(-95.9 -648.32)"/><path class="cls-2" d="M598.74,739.75h-17.6V710.33H561.55v71.08l37.09-.08h.1a20.79,20.79,0,1,0,0-41.58ZM598,759.64a6.49,6.49,0,0,1-6.48,6.06H581.14v-13h10.41a6.48,6.48,0,0,1,6.48,6.06,2.27,2.27,0,0,1,0,.45A2.32,2.32,0,0,1,598,759.64Z" transform="translate(-95.9 -648.32)"/><path class="cls-2" d="M378.42,738.41h-17.6v-9.83h31.55V709H341.23v71.08l37.09-.07h.1a20.8,20.8,0,1,0,0-41.59Zm-.71,19.89a6.48,6.48,0,0,1-6.48,6.06H360.82v-13h10.41a6.49,6.49,0,0,1,6.48,6.06,2.32,2.32,0,0,1,0,.45A2.27,2.27,0,0,1,377.71,758.3Z" transform="translate(-95.9 -648.32)"/><path class="cls-2" d="M1005.82,710.33H972.48v71.08h19.59V755.69h13.75a22.68,22.68,0,0,0,0-45.36Zm3.14,23.79a6.48,6.48,0,0,1-6.48,6.06H992.07v-13h10.41a6.48,6.48,0,0,1,6.48,6.06,2.22,2.22,0,0,1,0,.45A2.17,2.17,0,0,1,1009,734.12Z" transform="translate(-95.9 -648.32)"/><path class="cls-2" d="M480.65,764.51v0" transform="translate(-95.9 -648.32)"/><polygon class="cls-2" points="1141.64 62.01 1116.89 101.4 1116.89 62.01 1097.31 62.01 1097.31 133.09 1116.89 133.09 1141.64 94.72 1141.64 133.09 1161.23 133.09 1161.23 62.01 1141.64 62.01"/><path class="cls-2" d="M733.27,710.33l.17,45.29a9.44,9.44,0,0,1-9.45,9.29H720.1v16.5h16.49A16.44,16.44,0,0,0,752.9,765c0-.24,0-20.59,0-36.38H767.3v52.75h19.52v-71Z" transform="translate(-95.9 -648.32)"/><path class="cls-2" d="M546.51,763.55V710.33h-52.3l.23,41.08A13.7,13.7,0,0,1,480.65,765v28.15h19.59V780.32H536v12.82h19.59V763.55Zm-19.59,0h-20A13.32,13.32,0,0,0,514,751.73V727.81h12.89Z" transform="translate(-95.9 -648.32)"/><rect class="cls-3" x="809.93" y="697.65" width="19.59" height="42.27" transform="translate(5.04 890.19) rotate(-90)"/></svg>