<svg id="Layer_1" data-name="Layer 1" xmlns="http://www.w3.org/2000/svg" viewBox="0 0 951.32 269.28"><defs><style>.cls-1{fill:#1f427b;}.cls-2{fill:#ea6225;}</style></defs><title>entera  svg</title><path class="cls-1" d="M1225.66,785.43a56.31,56.31,0,0,0-52.77-56.21H1104v41.56h63.71c8.83,0,15.77,6.48,15.92,16h-44.92c-11.61,0-26.76-.35-41.94,13.6-14.57,13.4-13,35.33-13,35.33s-1.59,21.93,13,35.33c15.18,14,30.33,13.6,41.94,13.6h86.94Zm-41.55,58.32s-48.42.16-51.5.12c-1.28,0-7.85.14-7.85-8.16s6.57-8.14,7.85-8.16c3.08,0,51.5.12,51.5.12Z" transform="translate(-274.34 -615.36)"/><path class="cls-1" d="M730,842.9c-12.07-.49-15.14-9.62-15.38-21.42l0-50.7h36.73v-41.5H714.58v-.06h.09V667H673.12l0,62.24H658.2v41.5h15l0,58.65A56.89,56.89,0,0,0,730,883.58h31.62V842.91Z" transform="translate(-274.34 -615.36)"/><path class="cls-1" d="M357.87,666.65c10.23.34,57.72,0,57.72,0V615.36H330.93c-28.43,0-56.59,23-56.59,51.46V833.17c0,28.43,28.16,51.47,56.59,51.47H453.59V833.35s-85.49-.34-95.72,0c-13.83.45-32.15-9.39-32.07-28.5V770.78H449.24V729.22H325.8V695.15C325.72,676,344,666.2,357.87,666.65Z" transform="translate(-274.34 -615.36)"/><path class="cls-1" d="M878.12,729.28H848.49a55.56,55.56,0,0,0-55.55,55.56v44.22a55.57,55.57,0,0,0,55.58,55.58h85.15V842.93h-85a14.86,14.86,0,0,1-14.87-14.87v-.78h99.84V784.84A55.56,55.56,0,0,0,878.12,729.28ZM833.83,786.2a15.42,15.42,0,0,1,15.42-15.42H877.1a15.42,15.42,0,0,1,15.42,15.42Z" transform="translate(-274.34 -615.36)"/><path class="cls-1" d="M572.84,729.22H513.53A23.54,23.54,0,0,0,490,752.76V884.64h41.55V775.1c.26-2.24,1.93-4.32,3.88-4.32h36.43v0c9.37-.37,19.81,6,19.75,18.47v95.41h41.55V785.8C631.07,749.09,603.53,729.22,572.84,729.22Z" transform="translate(-274.34 -615.36)"/><path class="cls-1" d="M1030.7,729.28c-33.55,1.84-53.89,27-55.44,54.18l-.11,101.18h41.55l0-97.86a17,17,0,0,1,16-16h30.35v-41.5Z" transform="translate(-274.34 -615.36)"/><path class="cls-2" d="M363.16,615.65a52.44,52.44,0,0,0,104.85,0Z" transform="translate(-274.34 -615.36)"/></svg>