<svg id="Layer_1" data-name="Layer 1" xmlns="http://www.w3.org/2000/svg" viewBox="0 0 1808.03 511.78"><defs><style>.cls-1{fill:#fff;}.cls-2{fill:#ea6124;}</style></defs><path class="cls-1" d="M1950,1159c0-56.81-44.34-103.45-100.29-106.83H1718.79v79h121.1c16.77,0,30,12.33,30.25,30.43h-85.38c-22.06,0-50.86-.68-79.7,25.84-27.7,25.47-24.66,67.15-24.66,67.15s-3,41.67,24.66,67.14c28.84,26.52,57.64,25.85,79.7,25.85H1950Zm-79,110.83s-92,.31-97.87.23c-2.45,0-14.92.27-14.92-15.5s12.47-15.48,14.92-15.51c5.85-.08,97.87.23,97.87.23Z" transform="translate(-141.97 -835.8)"/><path class="cls-1" d="M1008,1268.25c-23-.93-28.78-18.28-29.24-40.71l-.06-96.37h69.8v-78.85H978.66v-.12h.19V934h-79l0,118.29H871.51v78.85H900l0,111.49a108.11,108.11,0,0,0,108,102.91h60.09v-77.3Z" transform="translate(-141.97 -835.8)"/><path class="cls-1" d="M300.72,933.28c19.45.64,109.7,0,109.7,0V835.8H249.51c-54,0-107.54,43.79-107.54,97.81v316.16c0,54,53.52,97.81,107.54,97.81H482.64V1250.1s-162.47-.65-181.92,0c-26.28.86-61.11-17.85-60.94-54.17v-64.76H474.37v-79H239.78V987.45C239.61,951.13,274.44,932.41,300.72,933.28Z" transform="translate(-141.97 -835.8)"/><path class="cls-1" d="M1289.48,1052.32h-56.31a105.59,105.59,0,0,0-105.59,105.58v84a105.64,105.64,0,0,0,105.64,105.64h161.85v-79.26H1233.56a28.26,28.26,0,0,1-28.26-28.26v-1.49h189.77V1157.9A105.59,105.59,0,0,0,1289.48,1052.32Zm-84.18,108.16a29.31,29.31,0,0,1,29.31-29.31h52.94a29.3,29.3,0,0,1,29.3,29.31Z" transform="translate(-141.97 -835.8)"/><path class="cls-1" d="M709.28,1052.2H596.55a44.73,44.73,0,0,0-44.72,44.73v250.65h79V1139.4c.48-4.26,3.65-8.23,7.37-8.23H707.4v0c17.81-.7,37.65,11.33,37.54,35.09v181.34h79V1159.74C819.94,1090,767.62,1052.2,709.28,1052.2Z" transform="translate(-141.97 -835.8)"/><path class="cls-1" d="M1579.47,1052.32c-63.77,3.49-102.43,51.27-105.38,103l-.19,192.31h79l.08-186a32.27,32.27,0,0,1,30.36-30.43H1641v-78.85Z" transform="translate(-141.97 -835.8)"/><path class="cls-2" d="M310.78,836.35a99.67,99.67,0,0,0,199.27,0Z" transform="translate(-141.97 -835.8)"/></svg>